<svg width="66" height="17" viewBox="0 0 66 17" fill="none" xmlns="http://www.w3.org/2000/svg">
<path d="M17.9082 2.40522V0.326923H14.5421V12.0027H17.9082V6.72528C17.9082 4.41346 19.8829 3.82967 21.2742 4.06319V0.0934048C19.8605 0.0934048 18.357 0.840658 17.9082 2.40522Z" fill="white" fill-opacity="0.87"/>
<path d="M25.526 7.56593H33.4924C33.5821 7.12225 33.627 6.65522 33.627 6.16483C33.627 2.63874 31.2034 0 27.9271 0C24.3815 0 21.958 2.68544 21.958 6.16483C21.958 9.64423 24.3367 12.3297 28.174 12.3297C30.3058 12.3297 31.9664 11.5124 33.066 9.92445L30.3731 8.31319C29.9243 8.82692 29.1389 9.20055 28.2189 9.20055C26.9846 9.20055 25.9524 8.78022 25.526 7.56593ZM25.4587 4.95055C25.7729 3.75962 26.6256 3.10577 27.9047 3.10577C28.9145 3.10577 29.9243 3.59615 30.2834 4.95055H25.4587Z" fill="white" fill-opacity="0.87"/>
<path d="M48.1029 0C46.5096 0 45.4773 0.607142 44.849 1.54121C44.2207 0.560439 43.2333 0 41.9093 0C40.4058 0 39.4184 0.607141 38.9023 1.4011V0.326923H35.5362V12.0027H38.9023V5.41758C38.9023 4.03983 39.5306 3.22253 40.6526 3.22253C41.7298 3.22253 42.2683 3.96978 42.2683 5.13736V12.0027H45.6344V5.41758C45.6344 4.03983 46.2627 3.22253 47.3848 3.22253C48.4619 3.22253 49.0005 3.96978 49.0005 5.13736V12.0027H52.3665V4.83379C52.3665 1.91483 50.6835 0 48.1029 0Z" fill="white" fill-opacity="0.87"/>
<path d="M60.0533 12.3297C63.352 12.3297 66 9.64423 66 6.16483C66 2.68544 63.352 0 60.0533 0C56.7545 0 54.1065 2.68544 54.1065 6.16483C54.1065 9.64423 56.7545 12.3297 60.0533 12.3297ZM60.0533 8.92033C58.5946 8.92033 57.4726 7.8228 57.4726 6.16483C57.4726 4.50687 58.5946 3.40934 60.0533 3.40934C61.5119 3.40934 62.6339 4.50687 62.6339 6.16483C62.6339 7.8228 61.5119 8.92033 60.0533 8.92033Z" fill="white" fill-opacity="0.87"/>
<path d="M6.25839 0C6.66428 0 7.05838 0.0345188 7.43745 0.101543V3.27842C7.08931 3.10007 6.69009 3.00393 6.25839 3.00393C4.79976 3.00393 3.67774 4.10146 3.67774 5.75942C3.67774 7.41739 4.79976 8.51492 6.25839 8.51492C7.64264 8.51492 8.69287 7.52646 8.79637 6.0086V5.99878H8.79651V5.96287C8.79661 5.95237 8.79665 5.94186 8.79665 5.93132C8.79665 5.92078 8.79661 5.91026 8.79651 5.89976V0.507536L8.79665 0.507599V0.326922H12.073V5.51007C12.0758 5.59194 12.0773 5.67452 12.0773 5.75778C12.0773 9.2367 9.47268 12.0798 6.17458 12.0806C6.14934 12.0803 6.12412 12.0797 6.09893 12.079L6.09077 12.0786C6.07788 12.0778 6.06208 12.0769 6.03533 12.0759V12.0769C2.82741 11.9525 0 9.1602 0 5.75942C0 2.28003 2.95965 0 6.25839 0Z" fill="white" fill-opacity="0.87"/>
<path d="M4.31604 12.4581C4.75488 13.1463 5.5063 13.6 6.35948 13.6C8.66884 13.6 10.7295 12.4919 12.0772 10.7588V11.05C12.0772 14.3361 9.51727 17 6.3594 17C4.29574 17 2.48741 15.8623 1.48202 14.1569L4.31604 12.4581Z" fill="white" fill-opacity="0.87"/>
</svg>
